<svg width="60" height="57" viewBox="0 0 60 57" fill="none" xmlns="http://www.w3.org/2000/svg">
<path d="M5.86778 57V48.0878H2.74019V46.2253H11.3064V48.0878H8.1788V57H5.86778Z" fill="white"/>
<path d="M19.509 57V46.2253H21.82V57H19.509ZM12.7454 57V46.2253H15.0564V57H12.7454ZM14.7637 52.4285V50.566H19.8787V52.4285H14.7637Z" fill="white"/>
<path d="M23.8792 57V46.2253H28.0699C28.9429 46.2253 29.667 46.3792 30.2422 46.6871C30.8277 46.9847 31.2591 47.3849 31.5364 47.8877C31.824 48.3905 31.9678 48.9498 31.9678 49.5655C31.9678 50.1401 31.8291 50.6789 31.5518 51.1817C31.2848 51.6845 30.8636 52.0898 30.2885 52.3977C29.7133 52.7055 28.9686 52.8594 28.0545 52.8594H26.1902V57H23.8792ZM29.4411 57L27.2687 52.2899H29.7492L32.0602 57H29.4411ZM26.1902 51.1971H27.9312C28.5064 51.1971 28.9275 51.0585 29.1946 50.7815C29.4719 50.5044 29.6105 50.1299 29.6105 49.6578C29.6105 49.1961 29.4719 48.8318 29.1946 48.565C28.9275 48.2879 28.5064 48.1494 27.9312 48.1494H26.1902V51.1971Z" fill="white"/>
<path d="M33.7492 57V46.2253H36.0602V57H33.7492Z" fill="white"/>
<path d="M41.1781 57L37.2956 46.2253H39.7606L42.6109 54.6604L45.492 46.2253H47.9417L44.0437 57H41.1781Z" fill="white"/>
<path d="M49.1711 57V46.2253H56.3969V48.0878H51.4821V50.6275H55.9347V52.4131H51.4821V55.1375H56.3969V57H49.1711Z" fill="white"/>
<path d="M39.6356 6.88059L30.1718 2.51196V0L20.5518 3.91616V7.39546L30.0937 3.4949L39.6356 7.39546V6.88059ZM39.6356 12.591L30.1718 8.94008V6.41252L20.5518 9.67339V13.1215L30.0937 9.90742L39.6356 13.1215V12.591ZM39.6356 18.317L30.1718 15.2902V12.8406L20.5518 15.3838V18.8319L30.0937 16.3199L39.6356 18.8319V18.317ZM39.6356 24.0743L30.1718 21.9992V19.534L20.5518 21.1098V24.5579L30.0937 22.9665L39.6356 24.5579V24.0743ZM20.5518 26.8202V30.2683L30.0937 29.4726L39.6356 30.2683V29.8003L30.1718 28.4585V25.9933L20.5518 26.8202ZM39.6356 35.9788V35.5107L30.1718 34.949V32.5619H20.5518V35.9788H39.6356ZM50.583 6.41252L40.9318 9.67339V13.1215L50.4737 9.90742L60 13.1215V12.591L50.583 8.94008V6.41252ZM50.583 12.8406L40.9318 15.3838V18.8319L50.4737 16.3199L60 18.8319V18.317L50.583 15.2902V12.8406ZM50.583 19.534L40.9318 21.1098V24.5579L50.4737 22.9665L60 24.5579V24.0743L50.583 21.9992V19.534ZM50.583 25.9933L40.9318 26.8202V30.2683L50.4737 29.4726L60 30.2683V29.8003L50.583 28.4585V25.9933ZM50.583 32.5619H40.9318V35.9788H60V35.5107L50.583 34.949V32.5619ZM9.61999 12.8406L0 15.3838V18.8319L9.52629 16.3199L19.0682 18.8319V18.317L9.61999 15.2902V12.8406ZM9.61999 19.534L0 21.1098V24.5579L9.52629 22.9665L19.0682 24.5579V24.0743L9.61999 21.9992V19.534ZM9.61999 25.9933L0 26.8202V30.2683L9.52629 29.4726L19.0682 30.2683V29.8003L9.61999 28.4585V25.9933ZM9.61999 32.5619H0V35.9788H19.0682V35.5107L9.61999 34.949V32.5619Z" fill="#F2E2A8"/>
</svg>
